<svg width="57" height="72" viewBox="0 0 57 72" fill="none" xmlns="http://www.w3.org/2000/svg">
<path d="M29.4797 61.2C30.1922 61.14 30.8008 60.855 31.3055 60.345C31.8102 59.835 32.0625 59.22 32.0625 58.5C32.0625 57.66 31.7953 56.985 31.2609 56.475C30.7266 55.965 30.0437 55.74 29.2125 55.8C26.7781 55.98 24.1953 55.305 21.4641 53.775C18.7328 52.245 17.0109 49.47 16.2984 45.45C16.1797 44.79 15.868 44.25 15.3633 43.83C14.8586 43.41 14.2797 43.2 13.6266 43.2C12.7953 43.2 12.1125 43.515 11.5781 44.145C11.0437 44.775 10.8656 45.51 11.0437 46.35C12.0531 51.81 14.4281 55.71 18.1687 58.05C21.9094 60.39 25.6797 61.44 29.4797 61.2ZM28.5 72C20.3656 72 13.582 69.18 8.14922 63.54C2.71641 57.9 0 50.88 0 42.48C0 36.48 2.36016 29.955 7.08047 22.905C11.8008 15.855 18.9406 8.22 28.5 0C38.0594 8.22 45.1992 15.855 49.9195 22.905C54.6398 29.955 57 36.48 57 42.48C57 50.88 54.2836 57.9 48.8508 63.54C43.418 69.18 36.6344 72 28.5 72ZM28.5 64.8C34.675 64.8 39.7812 62.685 43.8187 58.455C47.8562 54.225 49.875 48.9 49.875 42.48C49.875 38.1 48.0789 33.15 44.4867 27.63C40.8945 22.11 35.5656 16.08 28.5 9.54C21.4344 16.08 16.1055 22.11 12.5133 27.63C8.92109 33.15 7.125 38.1 7.125 42.48C7.125 48.9 9.14375 54.225 13.1812 58.455C17.2187 62.685 22.325 64.8 28.5 64.8Z" fill="#E3E3E3"/>
</svg>
