<svg width="71" height="61" viewBox="0 0 71 61" fill="none" xmlns="http://www.w3.org/2000/svg">
<path d="M33.725 61C30.7667 61 28.2521 59.9534 26.1812 57.8603C24.1104 55.7672 23.075 53.2255 23.075 50.2353H30.175C30.175 51.252 30.5152 52.1042 31.1956 52.7919C31.876 53.4797 32.7192 53.8235 33.725 53.8235C34.7308 53.8235 35.574 53.4797 36.2544 52.7919C36.9348 52.1042 37.275 51.252 37.275 50.2353C37.275 49.2186 36.9348 48.3664 36.2544 47.6787C35.574 46.9909 34.7308 46.6471 33.725 46.6471H0V39.4706H33.725C36.6833 39.4706 39.1979 40.5172 41.2687 42.6103C43.3396 44.7034 44.375 47.2451 44.375 50.2353C44.375 53.2255 43.3396 55.7672 41.2687 57.8603C39.1979 59.9534 36.6833 61 33.725 61ZM0 25.1176V17.9412H47.925C49.4633 17.9412 50.7354 17.4328 51.7412 16.4162C52.7471 15.3995 53.25 14.1137 53.25 12.5588C53.25 11.0039 52.7471 9.71814 51.7412 8.70147C50.7354 7.6848 49.4633 7.17647 47.925 7.17647C46.3867 7.17647 45.1146 7.6848 44.1087 8.70147C43.1029 9.71814 42.6 11.0039 42.6 12.5588H35.5C35.5 9.03039 36.6981 6.05515 39.0944 3.63309C41.4906 1.21103 44.4342 0 47.925 0C51.4158 0 54.3594 1.21103 56.7556 3.63309C59.1519 6.05515 60.35 9.03039 60.35 12.5588C60.35 16.0873 59.1519 19.0625 56.7556 21.4846C54.3594 23.9066 51.4158 25.1176 47.925 25.1176H0ZM58.575 53.8235V46.6471C60.1133 46.6471 61.3854 46.1387 62.3912 45.1221C63.3971 44.1054 63.9 42.8196 63.9 41.2647C63.9 39.7098 63.3971 38.424 62.3912 37.4074C61.3854 36.3907 60.1133 35.8824 58.575 35.8824H0V28.7059H58.575C62.0658 28.7059 65.0094 29.9169 67.4056 32.339C69.8019 34.761 71 37.7363 71 41.2647C71 44.7931 69.8019 47.7684 67.4056 50.1904C65.0094 52.6125 62.0658 53.8235 58.575 53.8235Z" fill="#E3E3E3"/>
</svg>
